<?xml version="1.0" encoding="UTF-8"?>
<svg width="83px" height="89px" viewBox="0 0 83 89" version="1.1" xmlns="http://www.w3.org/2000/svg" xmlns:xlink="http://www.w3.org/1999/xlink">
    <!-- Generator: Sketch 51.1 (57501) - http://www.bohemiancoding.com/sketch -->
    <title>Logo Copy 9</title>
    <desc>Created with Sketch.</desc>
    <defs></defs>
    <g id="Page-1" stroke="none" stroke-width="1" fill="none" fill-rule="evenodd">
        <g id="Desktop-HD" transform="translate(-558.000000, -627.000000)">
            <g id="Logo-Copy-9" transform="translate(558.000000, 627.000000)">
                <g id="Group-4-Copy-3" fill="#342300" fill-rule="nonzero">
                    <g id="logo-copy-4">
                        <polygon id="Shape" points="48 48 0 48 24 24 0 0 48 0 45.3152542 5.32881356 18.6711864 8.01355932 34.6576271 24 18.6711864 39.9864407 45.3152542 42.6711864"></polygon>
                    </g>
                </g>
                <path d="M5.681,61.9592702 C5.48166567,61.6819354 5.22600156,61.458771 4.914,61.2897702 C4.60199844,61.1207693 4.22500221,61.0362702 3.783,61.0362702 C3.55766554,61.0362702 3.32800117,61.0709365 3.094,61.1402702 C2.85999883,61.2096038 2.64766762,61.3157694 2.457,61.4587702 C2.26633238,61.6017709 2.11250058,61.7816024 1.9955,61.9982702 C1.87849941,62.2149379 1.82,62.470602 1.82,62.7652702 C1.82,63.0599383 1.87633277,63.3026025 1.989,63.4932702 C2.10166723,63.6839378 2.25116573,63.8464361 2.4375,63.9807702 C2.62383426,64.1151042 2.83616547,64.2256031 3.0745,64.3122702 C3.31283452,64.3989373 3.5619987,64.4856031 3.822,64.5722702 C4.14266827,64.6762707 4.46549837,64.7889362 4.7905,64.9102702 C5.11550162,65.0316041 5.4079987,65.1897692 5.668,65.3847702 C5.9280013,65.5797711 6.14033251,65.8267687 6.305,66.1257702 C6.46966749,66.4247716 6.552,66.8039345 6.552,67.2632702 C6.552,67.7226058 6.46316755,68.1191018 6.2855,68.4527702 C6.10783244,68.7864385 5.87816807,69.0616024 5.5965,69.2782702 C5.31483192,69.4949379 4.99416846,69.6552696 4.6345,69.7592702 C4.27483153,69.8632707 3.91300182,69.9152702 3.549,69.9152702 C3.27166528,69.9152702 2.99433472,69.8871038 2.717,69.8307702 C2.43966528,69.7744365 2.17533459,69.6899374 1.924,69.5772702 C1.67266541,69.4646029 1.43866775,69.3216044 1.222,69.1482702 C1.00533225,68.974936 0.81466749,68.7756046 0.65,68.5502702 L1.456,67.9522702 C1.65533433,68.2816051 1.93483153,68.556769 2.2945,68.7777702 C2.65416846,68.9987713 3.07666424,69.1092702 3.562,69.1092702 C3.79600117,69.1092702 4.03433212,69.0724372 4.277,68.9987702 C4.51966788,68.9251031 4.73849902,68.8124376 4.9335,68.6607702 C5.12850097,68.5091027 5.2888327,68.3227713 5.4145,68.1017702 C5.54016729,67.880769 5.603,67.6229383 5.603,67.3282702 C5.603,67.0076019 5.54016729,66.7411045 5.4145,66.5287702 C5.2888327,66.3164358 5.12200104,66.1387709 4.914,65.9957702 C4.70599896,65.8527694 4.46766801,65.733604 4.199,65.6382702 C3.93033199,65.5429363 3.64866814,65.447604 3.354,65.3522702 C3.05066515,65.2569363 2.75166814,65.1486041 2.457,65.0272702 C2.16233186,64.9059362 1.89800117,64.7477711 1.664,64.5527702 C1.42999883,64.3577692 1.24150071,64.1172716 1.0985,63.8312702 C0.955499285,63.5452687 0.884,63.1942722 0.884,62.7782702 C0.884,62.3362679 0.972832445,61.9549384 1.1505,61.6342702 C1.32816755,61.3136019 1.55999857,61.0492712 1.846,60.8412702 C2.13200143,60.6332691 2.4483316,60.481604 2.795,60.3862702 C3.1416684,60.2909363 3.48399831,60.2432702 3.822,60.2432702 C4.44600312,60.2432702 4.97899779,60.353769 5.421,60.5747702 C5.86300221,60.7957713 6.19666554,61.0579353 6.422,61.3612702 L5.681,61.9592702 Z M9.519,69.6812702 L8.635,69.6812702 L8.635,63.5972702 L9.519,63.5972702 L9.519,69.6812702 Z M9.701,61.2572702 C9.701,61.4392711 9.63600065,61.5887696 9.506,61.7057702 C9.37599935,61.8227707 9.23300078,61.8812702 9.077,61.8812702 C8.92099922,61.8812702 8.77800065,61.8227707 8.648,61.7057702 C8.51799935,61.5887696 8.453,61.4392711 8.453,61.2572702 C8.453,61.0752692 8.51799935,60.9257707 8.648,60.8087702 C8.77800065,60.6917696 8.92099922,60.6332702 9.077,60.6332702 C9.23300078,60.6332702 9.37599935,60.6917696 9.506,60.8087702 C9.63600065,60.9257707 9.701,61.0752692 9.701,61.2572702 Z M12.317,70.9032702 C12.5596679,71.2152717 12.8911646,71.4796024 13.3115,71.6962702 C13.7318354,71.9129379 14.1759977,72.0212702 14.644,72.0212702 C15.0773355,72.0212702 15.4456651,71.9584374 15.749,71.8327702 C16.0523348,71.7071029 16.2971657,71.5359379 16.4835,71.3192702 C16.6698343,71.1026024 16.8063329,70.8491049 16.893,70.5587702 C16.9796671,70.2684354 17.023,69.9586051 17.023,69.6292702 L17.023,68.4852702 L16.997,68.4852702 C16.7629988,68.8666054 16.4315021,69.1612691 16.0025,69.3692702 C15.5734978,69.5772712 15.1380022,69.6812702 14.696,69.6812702 C14.2193309,69.6812702 13.7881686,69.6032709 13.4025,69.4472702 C13.0168314,69.2912694 12.6875014,69.0767715 12.4145,68.8037702 C12.1414986,68.5307688 11.9291674,68.2036054 11.7775,67.8222702 C11.6258326,67.4409349 11.55,67.0292724 11.55,66.5872702 C11.55,66.1539347 11.6258326,65.7466054 11.7775,65.3652702 C11.9291674,64.9839349 12.1414986,64.6502716 12.4145,64.3642702 C12.6875014,64.0782687 13.0168314,63.8529376 13.4025,63.6882702 C13.7881686,63.5236027 14.2193309,63.4412702 14.696,63.4412702 C15.1380022,63.4412702 15.5713312,63.5452691 15.996,63.7532702 C16.4206688,63.9612712 16.7543321,64.2602682 16.997,64.6502702 L17.023,64.6502702 L17.023,63.5972702 L17.907,63.5972702 L17.907,69.6292702 C17.907,69.9586051 17.8615004,70.3096016 17.7705,70.6822702 C17.6794995,71.0549387 17.5105012,71.3972686 17.2635,71.7092702 C17.0164988,72.0212717 16.6806688,72.2812691 16.256,72.4892702 C15.8313312,72.6972712 15.2810034,72.8012702 14.605,72.8012702 C14.0416638,72.8012702 13.5043359,72.6929379 12.993,72.4762702 C12.4816641,72.2596024 12.0440018,71.9606054 11.68,71.5792702 L12.317,70.9032702 Z M12.486,66.5612702 C12.486,66.8819384 12.5379995,67.1852687 12.642,67.4712702 C12.7460005,67.7572716 12.895499,68.0086024 13.0905,68.2252702 C13.285501,68.4419379 13.5259986,68.6131029 13.812,68.7387702 C14.0980014,68.8644374 14.4229982,68.9272702 14.787,68.9272702 C15.1250017,68.9272702 15.4369986,68.8709374 15.723,68.7582702 C16.0090014,68.6456029 16.255999,68.4852712 16.464,68.2772702 C16.672001,68.0692691 16.8344994,67.8201049 16.9515,67.5297702 C17.0685006,67.2394354 17.127,66.9166053 17.127,66.5612702 C17.127,66.2406019 17.0685006,65.9372716 16.9515,65.6512702 C16.8344994,65.3652687 16.672001,65.1139379 16.464,64.8972702 C16.255999,64.6806024 16.0090014,64.5072708 15.723,64.3772702 C15.4369986,64.2472695 15.1250017,64.1822702 14.787,64.1822702 C14.4229982,64.1822702 14.0980014,64.2472695 13.812,64.3772702 C13.5259986,64.5072708 13.285501,64.6806024 13.0905,64.8972702 C12.895499,65.1139379 12.7460005,65.3652687 12.642,65.6512702 C12.5379995,65.9372716 12.486,66.2406019 12.486,66.5612702 Z M21.199,64.6372702 C21.3723342,64.281935 21.6388315,63.9937713 21.9985,63.7727702 C22.3581685,63.551769 22.7589978,63.4412702 23.201,63.4412702 C23.3656675,63.4412702 23.5368324,63.4586033 23.7145,63.4932702 C23.8921675,63.527937 24.0654991,63.595103 24.2345,63.6947702 C24.4035008,63.7944373 24.5594993,63.9266027 24.7025,64.0912702 C24.8455007,64.2559376 24.9689995,64.4682689 25.073,64.7282702 C25.281001,64.3122681 25.5648315,63.9937713 25.9245,63.7727702 C26.2841685,63.551769 26.7109975,63.4412702 27.205,63.4412702 C27.9763372,63.4412702 28.5548314,63.6709345 28.9405,64.1302702 C29.3261686,64.5896058 29.519,65.1962664 29.519,65.9502702 L29.519,69.6812702 L28.635,69.6812702 L28.635,66.3142702 C28.635,65.6729336 28.5158345,65.1572721 28.2775,64.7672702 C28.0391655,64.3772682 27.6340029,64.1822702 27.062,64.1822702 C26.7413317,64.1822702 26.4705011,64.2472695 26.2495,64.3772702 C26.0284989,64.5072708 25.850834,64.6784358 25.7165,64.8907702 C25.582166,65.1031045 25.484667,65.3436021 25.424,65.6122702 C25.363333,65.8809382 25.333,66.1582687 25.333,66.4442702 L25.333,69.6812702 L24.449,69.6812702 L24.449,66.1322702 C24.449,65.837602 24.4273335,65.568938 24.384,65.3262702 C24.3406664,65.0836023 24.2648339,64.877771 24.1565,64.7087702 C24.0481661,64.5397693 23.8986676,64.4097706 23.708,64.3187702 C23.5173324,64.2277697 23.2746681,64.1822702 22.98,64.1822702 C22.771999,64.1822702 22.5618344,64.2299363 22.3495,64.3252702 C22.1371656,64.420604 21.9465008,64.5657692 21.7775,64.7607702 C21.6084991,64.9557711 21.4720005,65.2027687 21.368,65.5017702 C21.2639995,65.8007716 21.212,66.1539348 21.212,66.5612702 L21.212,69.6812702 L20.328,69.6812702 L20.328,64.9362702 C20.328,64.7716027 20.3236667,64.5592715 20.315,64.2992702 C20.3063333,64.0392689 20.2933334,63.8052712 20.276,63.5972702 L21.121,63.5972702 C21.1383334,63.7619376 21.1513333,63.9439358 21.16,64.1432702 C21.1686667,64.3426045 21.173,64.5072695 21.173,64.6372702 L21.199,64.6372702 Z M36.347,69.6812702 C36.3296666,69.5166027 36.3166667,69.3346045 36.308,69.1352702 C36.2993333,68.9359358 36.295,68.7712708 36.295,68.6412702 L36.269,68.6412702 C36.0956658,68.9966053 35.8140019,69.284769 35.424,69.5057702 C35.033998,69.7267713 34.6223355,69.8372702 34.189,69.8372702 C33.4176628,69.8372702 32.8391686,69.6076058 32.4535,69.1482702 C32.0678314,68.6889345 31.875,68.0822739 31.875,67.3282702 L31.875,63.5972702 L32.759,63.5972702 L32.759,66.9642702 C32.759,67.2849384 32.7849997,67.5752689 32.837,67.8352702 C32.8890002,68.0952715 32.9778327,68.3184359 33.1035,68.5047702 C33.2291673,68.6911044 33.3981656,68.8362696 33.6105,68.9402702 C33.8228344,69.0442707 34.0893317,69.0962702 34.41,69.0962702 C34.6440012,69.0962702 34.8714989,69.048604 35.0925,68.9532702 C35.3135011,68.8579363 35.5106658,68.7127711 35.684,68.5177702 C35.8573342,68.3227692 35.9959995,68.0757716 36.1,67.7767702 C36.2040005,67.4777687 36.256,67.1246055 36.256,66.7172702 L36.256,63.5972702 L37.14,63.5972702 L37.14,68.3422702 C37.14,68.5069376 37.1443333,68.7192689 37.153,68.9792702 C37.1616667,69.2392715 37.1746666,69.4732691 37.192,69.6812702 L36.347,69.6812702 Z M42.837,65.0402702 C42.7069993,64.7889356 42.5098346,64.5831043 42.2455,64.4227702 C41.9811653,64.262436 41.6800017,64.1822702 41.342,64.1822702 C41.1859992,64.1822702 41.0300008,64.1996033 40.874,64.2342702 C40.7179992,64.268937 40.5793339,64.3252698 40.458,64.4032702 C40.336666,64.4812705 40.239167,64.5809362 40.1655,64.7022702 C40.091833,64.8236041 40.055,64.9666027 40.055,65.1312702 C40.055,65.4172716 40.1719988,65.6361027 40.406,65.7877702 C40.6400012,65.9394376 41.0083308,66.0672696 41.511,66.1712702 C42.2303369,66.3186042 42.7611649,66.5331021 43.1035,66.8147702 C43.445835,67.0964382 43.617,67.4756011 43.617,67.9522702 C43.617,68.2989386 43.549834,68.5914356 43.4155,68.8297702 C43.281166,69.0681047 43.1056677,69.2631027 42.889,69.4147702 C42.6723322,69.5664376 42.4275014,69.6747698 42.1545,69.7397702 C41.8814986,69.8047705 41.6063347,69.8372702 41.329,69.8372702 C40.8696644,69.8372702 40.4233355,69.7419378 39.99,69.5512702 C39.5566645,69.3606025 39.2013347,69.0616055 38.924,68.6542702 L39.626,68.1342702 C39.7820008,68.4029382 40.0116651,68.6282692 40.315,68.8102702 C40.6183348,68.9922711 40.9519982,69.0832702 41.316,69.0832702 C41.5066676,69.0832702 41.6886658,69.065937 41.862,69.0312702 C42.0353342,68.9966033 42.1869993,68.9359373 42.317,68.8492702 C42.4470006,68.7626031 42.5509996,68.6521042 42.629,68.5177702 C42.7070004,68.3834361 42.746,68.2166045 42.746,68.0172702 C42.746,67.6966019 42.5921682,67.4561043 42.2845,67.2957702 C41.9768318,67.135436 41.5326696,66.9859375 40.952,66.8472702 C40.7699991,66.8039366 40.5771677,66.7497705 40.3735,66.6847702 C40.1698323,66.6197698 39.9813342,66.5244374 39.808,66.3987702 C39.6346658,66.2731029 39.4916672,66.1149378 39.379,65.9242702 C39.2663328,65.7336025 39.21,65.4952716 39.21,65.2092702 C39.21,64.8972686 39.270666,64.6307713 39.392,64.4097702 C39.5133339,64.188769 39.6758323,64.0067709 39.8795,63.8637702 C40.0831677,63.7207694 40.3149987,63.6146038 40.575,63.5452702 C40.8350013,63.4759365 41.1036653,63.4412702 41.381,63.4412702 C41.8056688,63.4412702 42.2173313,63.5366025 42.616,63.7272702 C43.0146686,63.9179378 43.3136657,64.1866018 43.513,64.5332702 L42.837,65.0402702 Z M1.222,76.4772702 L4.277,76.4772702 C4.84900286,76.4772702 5.42316378,76.5726025 5.9995,76.7632702 C6.57583621,76.9539378 7.09583101,77.2421016 7.5595,77.6277702 C8.02316898,78.0134387 8.39799857,78.4944339 8.684,79.0707702 C8.97000143,79.6471064 9.113,80.3165997 9.113,81.0792702 C9.113,81.8506073 8.97000143,82.5222673 8.684,83.0942702 C8.39799857,83.666273 8.02316898,84.1451016 7.5595,84.5307702 C7.09583101,84.9164387 6.57583621,85.2046025 5.9995,85.3952702 C5.42316378,85.5859378 4.84900286,85.6812702 4.277,85.6812702 L1.222,85.6812702 L1.222,76.4772702 Z M2.158,84.8492702 L4.017,84.8492702 C4.7103368,84.8492702 5.31483075,84.7409379 5.8305,84.5242702 C6.34616924,84.3076024 6.77299831,84.0237719 7.111,83.6727702 C7.44900169,83.3217684 7.70249915,82.9209391 7.8715,82.4702702 C8.04050084,82.0196012 8.125,81.5559392 8.125,81.0792702 C8.125,80.6026011 8.04050084,80.1389391 7.8715,79.6882702 C7.70249915,79.2376012 7.44900169,78.8367719 7.111,78.4857702 C6.77299831,78.1347684 6.34616924,77.8509379 5.8305,77.6342702 C5.31483075,77.4176024 4.7103368,77.3092702 4.017,77.3092702 L2.158,77.3092702 L2.158,84.8492702 Z M15.772,82.1712702 C15.7459999,81.5992673 15.561835,81.124772 15.2195,80.7477702 C14.877165,80.3707683 14.3896698,80.1822702 13.757,80.1822702 C13.4623319,80.1822702 13.1893346,80.2364363 12.938,80.3447702 C12.6866654,80.453104 12.4656676,80.6004359 12.275,80.7867702 C12.0843324,80.9731044 11.9326672,81.1854356 11.82,81.4237702 C11.7073328,81.6621047 11.6423334,81.9112689 11.625,82.1712702 L15.772,82.1712702 Z M16.669,82.4572702 L16.669,82.6522702 C16.669,82.7216038 16.6646667,82.7952698 16.656,82.8732702 L11.612,82.8732702 C11.6206667,83.176605 11.6813328,83.4626021 11.794,83.7312702 C11.9066672,83.9999382 12.0626657,84.2339358 12.262,84.4332702 C12.4613343,84.6326045 12.695332,84.7907696 12.964,84.9077702 C13.232668,85.0247707 13.5229984,85.0832702 13.835,85.0832702 C14.2943356,85.0832702 14.6908317,84.9771045 15.0245,84.7647702 C15.3581683,84.5524358 15.6116658,84.3076049 15.785,84.0302702 L16.448,84.5502702 C16.0839982,85.0096058 15.6831689,85.3389358 15.2455,85.5382702 C14.8078311,85.7376045 14.3376692,85.8372702 13.835,85.8372702 C13.3843311,85.8372702 12.9661686,85.7571043 12.5805,85.5967702 C12.1948314,85.436436 11.8633347,85.2132716 11.586,84.9272702 C11.3086653,84.6412687 11.0898341,84.3032721 10.9295,83.9132702 C10.7691659,83.5232682 10.689,83.0986058 10.689,82.6392702 C10.689,82.1799345 10.7669992,81.7552721 10.923,81.3652702 C11.0790008,80.9752682 11.2956653,80.6372716 11.573,80.3512702 C11.8503347,80.0652687 12.1753315,79.8421043 12.548,79.6817702 C12.9206685,79.521436 13.3236645,79.4412702 13.757,79.4412702 C14.233669,79.4412702 14.6539982,79.521436 15.018,79.6817702 C15.3820018,79.8421043 15.6853321,80.0587688 15.928,80.3317702 C16.1706679,80.6047715 16.3548327,80.9232683 16.4805,81.2872702 C16.6061673,81.651272 16.669,82.0412681 16.669,82.4572702 Z M21.183,85.6812702 L20.208,85.6812702 L17.725,79.5972702 L18.713,79.5972702 L20.689,84.7452702 L20.715,84.7452702 L22.704,79.5972702 L23.653,79.5972702 L21.183,85.6812702 Z M29.792,82.1712702 C29.7659999,81.5992673 29.581835,81.124772 29.2395,80.7477702 C28.8971649,80.3707683 28.4096698,80.1822702 27.777,80.1822702 C27.4823319,80.1822702 27.2093346,80.2364363 26.958,80.3447702 C26.7066654,80.453104 26.4856676,80.6004359 26.295,80.7867702 C26.1043324,80.9731044 25.9526672,81.1854356 25.84,81.4237702 C25.7273328,81.6621047 25.6623334,81.9112689 25.645,82.1712702 L29.792,82.1712702 Z M30.689,82.4572702 L30.689,82.6522702 C30.689,82.7216038 30.6846667,82.7952698 30.676,82.8732702 L25.632,82.8732702 C25.6406667,83.176605 25.7013328,83.4626021 25.814,83.7312702 C25.9266672,83.9999382 26.0826657,84.2339358 26.282,84.4332702 C26.4813343,84.6326045 26.715332,84.7907696 26.984,84.9077702 C27.252668,85.0247707 27.5429984,85.0832702 27.855,85.0832702 C28.3143356,85.0832702 28.7108317,84.9771045 29.0445,84.7647702 C29.3781683,84.5524358 29.6316658,84.3076049 29.805,84.0302702 L30.468,84.5502702 C30.1039982,85.0096058 29.7031688,85.3389358 29.2655,85.5382702 C28.8278311,85.7376045 28.3576692,85.8372702 27.855,85.8372702 C27.4043311,85.8372702 26.9861686,85.7571043 26.6005,85.5967702 C26.2148314,85.436436 25.8833347,85.2132716 25.606,84.9272702 C25.3286653,84.6412687 25.1098341,84.3032721 24.9495,83.9132702 C24.7891659,83.5232682 24.709,83.0986058 24.709,82.6392702 C24.709,82.1799345 24.7869992,81.7552721 24.943,81.3652702 C25.0990008,80.9752682 25.3156653,80.6372716 25.593,80.3512702 C25.8703347,80.0652687 26.1953315,79.8421043 26.568,79.6817702 C26.9406685,79.521436 27.3436645,79.4412702 27.777,79.4412702 C28.253669,79.4412702 28.6739982,79.521436 29.038,79.6817702 C29.4020018,79.8421043 29.7053321,80.0587688 29.948,80.3317702 C30.1906679,80.6047715 30.3748327,80.9232683 30.5005,81.2872702 C30.6261673,81.651272 30.689,82.0412681 30.689,82.4572702 Z M33.617,85.6812702 L32.733,85.6812702 L32.733,75.8532702 L33.617,75.8532702 L33.617,85.6812702 Z M42.148,82.6392702 C42.148,83.0986058 42.0678341,83.5232682 41.9075,83.9132702 C41.7471659,84.3032721 41.5240014,84.6412687 41.238,84.9272702 C40.9519986,85.2132716 40.6096686,85.436436 40.211,85.5967702 C39.8123313,85.7571043 39.374669,85.8372702 38.898,85.8372702 C38.4299976,85.8372702 37.9966686,85.7571043 37.598,85.5967702 C37.1993313,85.436436 36.8570014,85.2132716 36.571,84.9272702 C36.2849986,84.6412687 36.0618341,84.3032721 35.9015,83.9132702 C35.7411659,83.5232682 35.661,83.0986058 35.661,82.6392702 C35.661,82.1799345 35.7411659,81.7552721 35.9015,81.3652702 C36.0618341,80.9752682 36.2849986,80.6372716 36.571,80.3512702 C36.8570014,80.0652687 37.1993313,79.8421043 37.598,79.6817702 C37.9966686,79.521436 38.4299976,79.4412702 38.898,79.4412702 C39.374669,79.4412702 39.8123313,79.521436 40.211,79.6817702 C40.6096686,79.8421043 40.9519986,80.0652687 41.238,80.3512702 C41.5240014,80.6372716 41.7471659,80.9752682 41.9075,81.3652702 C42.0678341,81.7552721 42.148,82.1799345 42.148,82.6392702 Z M41.212,82.6392702 C41.212,82.3012685 41.1578339,81.9827716 41.0495,81.6837702 C40.9411661,81.3847687 40.7873343,81.1247713 40.588,80.9037702 C40.3886657,80.682769 40.1460014,80.5072708 39.86,80.3772702 C39.5739986,80.2472695 39.2533351,80.1822702 38.898,80.1822702 C38.5426649,80.1822702 38.2241681,80.2472695 37.9425,80.3772702 C37.6608319,80.5072708 37.4203343,80.682769 37.221,80.9037702 C37.0216657,81.1247713 36.8678339,81.3847687 36.7595,81.6837702 C36.6511661,81.9827716 36.597,82.3012685 36.597,82.6392702 C36.597,82.9772718 36.6511661,83.2957687 36.7595,83.5947702 C36.8678339,83.8937716 37.0216657,84.153769 37.221,84.3747702 C37.4203343,84.5957713 37.6608319,84.7691029 37.9425,84.8947702 C38.2241681,85.0204374 38.5426649,85.0832702 38.898,85.0832702 C39.2533351,85.0832702 39.5739986,85.0204374 39.86,84.8947702 C40.1460014,84.7691029 40.3886657,84.5957713 40.588,84.3747702 C40.7873343,84.153769 40.9411661,83.8937716 41.0495,83.5947702 C41.1578339,83.2957687 41.212,82.9772718 41.212,82.6392702 Z M45.05,88.8012702 L44.166,88.8012702 L44.166,79.5972702 L45.05,79.5972702 L45.05,80.6502702 L45.089,80.6502702 C45.3403346,80.2516015 45.6761645,79.9504378 46.0965,79.7467702 C46.5168354,79.5431025 46.9436645,79.4412702 47.377,79.4412702 C47.853669,79.4412702 48.2848314,79.5236027 48.6705,79.6882702 C49.0561686,79.8529376 49.3854986,80.0782687 49.6585,80.3642702 C49.9315013,80.6502716 50.1438326,80.9882682 50.2955,81.3782702 C50.4471674,81.7682721 50.523,82.1886012 50.523,82.6392702 C50.523,83.0899391 50.4471674,83.5102682 50.2955,83.9002702 C50.1438326,84.2902721 49.9315013,84.6282687 49.6585,84.9142702 C49.3854986,85.2002716 49.0561686,85.4256027 48.6705,85.5902702 C48.2848314,85.7549376 47.853669,85.8372702 47.377,85.8372702 C46.9436645,85.8372702 46.5168354,85.7354378 46.0965,85.5317702 C45.6761645,85.3281025 45.3403346,85.0356054 45.089,84.6542702 L45.05,84.6542702 L45.05,88.8012702 Z M49.587,82.6392702 C49.587,82.3012685 49.5350005,81.9827716 49.431,81.6837702 C49.3269995,81.3847687 49.177501,81.1247713 48.9825,80.9037702 C48.787499,80.682769 48.5470014,80.5072708 48.261,80.3772702 C47.9749986,80.2472695 47.6500018,80.1822702 47.286,80.1822702 C46.9479983,80.1822702 46.6360014,80.2451029 46.35,80.3707702 C46.0639986,80.4964374 45.817001,80.669769 45.609,80.8907702 C45.4009989,81.1117713 45.2385006,81.3717687 45.1215,81.6707702 C45.0044994,81.9697716 44.946,82.2926018 44.946,82.6392702 C44.946,82.9859386 45.0044994,83.3087687 45.1215,83.6077702 C45.2385006,83.9067716 45.4009989,84.1646024 45.609,84.3812702 C45.817001,84.5979379 46.0639986,84.7691029 46.35,84.8947702 C46.6360014,85.0204374 46.9479983,85.0832702 47.286,85.0832702 C47.6500018,85.0832702 47.9749986,85.0204374 48.261,84.8947702 C48.5470014,84.7691029 48.787499,84.5957713 48.9825,84.3747702 C49.177501,84.153769 49.3269995,83.8937716 49.431,83.5947702 C49.5350005,83.2957687 49.587,82.9772718 49.587,82.6392702 Z M53.412,80.6372702 C53.5853342,80.281935 53.8518315,79.9937713 54.2115,79.7727702 C54.5711684,79.551769 54.9719978,79.4412702 55.414,79.4412702 C55.5786675,79.4412702 55.7498324,79.4586033 55.9275,79.4932702 C56.1051675,79.527937 56.2784991,79.595103 56.4475,79.6947702 C56.6165008,79.7944373 56.7724993,79.9266027 56.9155,80.0912702 C57.0585007,80.2559376 57.1819995,80.4682689 57.286,80.7282702 C57.494001,80.3122681 57.7778315,79.9937713 58.1375,79.7727702 C58.4971684,79.551769 58.9239975,79.4412702 59.418,79.4412702 C60.1893372,79.4412702 60.7678314,79.6709345 61.1535,80.1302702 C61.5391686,80.5896058 61.732,81.1962664 61.732,81.9502702 L61.732,85.6812702 L60.848,85.6812702 L60.848,82.3142702 C60.848,81.6729336 60.7288345,81.1572721 60.4905,80.7672702 C60.2521655,80.3772682 59.8470028,80.1822702 59.275,80.1822702 C58.9543317,80.1822702 58.6835011,80.2472695 58.4625,80.3772702 C58.2414989,80.5072708 58.063834,80.6784358 57.9295,80.8907702 C57.795166,81.1031045 57.697667,81.3436021 57.637,81.6122702 C57.576333,81.8809382 57.546,82.1582687 57.546,82.4442702 L57.546,85.6812702 L56.662,85.6812702 L56.662,82.1322702 C56.662,81.837602 56.6403335,81.568938 56.597,81.3262702 C56.5536664,81.0836023 56.4778339,80.877771 56.3695,80.7087702 C56.2611661,80.5397693 56.1116676,80.4097706 55.921,80.3187702 C55.7303324,80.2277697 55.4876681,80.1822702 55.193,80.1822702 C54.9849989,80.1822702 54.7748344,80.2299363 54.5625,80.3252702 C54.3501656,80.420604 54.1595008,80.5657692 53.9905,80.7607702 C53.8214991,80.9557711 53.6850005,81.2027687 53.581,81.5017702 C53.4769995,81.8007716 53.425,82.1539348 53.425,82.5612702 L53.425,85.6812702 L52.541,85.6812702 L52.541,80.9362702 C52.541,80.7716027 52.5366667,80.5592715 52.528,80.2992702 C52.5193333,80.0392689 52.5063334,79.8052712 52.489,79.5972702 L53.334,79.5972702 C53.3513334,79.7619376 53.3643333,79.9439358 53.373,80.1432702 C53.3816667,80.3426045 53.386,80.5072695 53.386,80.6372702 L53.412,80.6372702 Z M68.781,82.1712702 C68.7549998,81.5992673 68.570835,81.124772 68.2285,80.7477702 C67.8861649,80.3707683 67.3986698,80.1822702 66.766,80.1822702 C66.4713318,80.1822702 66.1983346,80.2364363 65.947,80.3447702 C65.6956654,80.453104 65.4746676,80.6004359 65.284,80.7867702 C65.0933324,80.9731044 64.9416672,81.1854356 64.829,81.4237702 C64.7163327,81.6621047 64.6513334,81.9112689 64.634,82.1712702 L68.781,82.1712702 Z M69.678,82.4572702 L69.678,82.6522702 C69.678,82.7216038 69.6736667,82.7952698 69.665,82.8732702 L64.621,82.8732702 C64.6296667,83.176605 64.6903327,83.4626021 64.803,83.7312702 C64.9156672,83.9999382 65.0716656,84.2339358 65.271,84.4332702 C65.4703343,84.6326045 65.704332,84.7907696 65.973,84.9077702 C66.241668,85.0247707 66.5319984,85.0832702 66.844,85.0832702 C67.3033356,85.0832702 67.6998316,84.9771045 68.0335,84.7647702 C68.3671683,84.5524358 68.6206658,84.3076049 68.794,84.0302702 L69.457,84.5502702 C69.0929982,85.0096058 68.6921688,85.3389358 68.2545,85.5382702 C67.8168311,85.7376045 67.3466692,85.8372702 66.844,85.8372702 C66.3933311,85.8372702 65.9751686,85.7571043 65.5895,85.5967702 C65.2038314,85.436436 64.8723347,85.2132716 64.595,84.9272702 C64.3176653,84.6412687 64.0988341,84.3032721 63.9385,83.9132702 C63.7781658,83.5232682 63.698,83.0986058 63.698,82.6392702 C63.698,82.1799345 63.7759992,81.7552721 63.932,81.3652702 C64.0880008,80.9752682 64.3046653,80.6372716 64.582,80.3512702 C64.8593347,80.0652687 65.1843314,79.8421043 65.557,79.6817702 C65.9296685,79.521436 66.3326645,79.4412702 66.766,79.4412702 C67.242669,79.4412702 67.6629982,79.521436 68.027,79.6817702 C68.3910018,79.8421043 68.6943321,80.0587688 68.937,80.3317702 C69.1796679,80.6047715 69.3638327,80.9232683 69.4895,81.2872702 C69.6151673,81.651272 69.678,82.0412681 69.678,82.4572702 Z M72.489,79.5972702 C72.5063334,79.7619376 72.5193333,79.9439358 72.528,80.1432702 C72.5366667,80.3426045 72.541,80.5072695 72.541,80.6372702 L72.567,80.6372702 C72.7403342,80.281935 73.021998,79.9937713 73.412,79.7727702 C73.8020019,79.551769 74.2136645,79.4412702 74.647,79.4412702 C75.4183372,79.4412702 75.9968314,79.6709345 76.3825,80.1302702 C76.7681686,80.5896058 76.961,81.1962664 76.961,81.9502702 L76.961,85.6812702 L76.077,85.6812702 L76.077,82.3142702 C76.077,81.9936019 76.0510002,81.7032715 75.999,81.4432702 C75.9469997,81.1832689 75.8581673,80.9601044 75.7325,80.7737702 C75.6068327,80.5874359 75.4378344,80.4422707 75.2255,80.3382702 C75.0131656,80.2342696 74.7466682,80.1822702 74.426,80.1822702 C74.1919988,80.1822702 73.9645011,80.2299363 73.7435,80.3252702 C73.5224989,80.420604 73.3253342,80.5657692 73.152,80.7607702 C72.9786658,80.9557711 72.8400005,81.2027687 72.736,81.5017702 C72.6319995,81.8007716 72.58,82.1539348 72.58,82.5612702 L72.58,85.6812702 L71.696,85.6812702 L71.696,80.9362702 C71.696,80.7716027 71.6916667,80.5592715 71.683,80.2992702 C71.6743333,80.0392689 71.6613334,79.8052712 71.644,79.5972702 L72.489,79.5972702 Z M82.112,80.3382702 L80.396,80.3382702 L80.396,83.8872702 C80.396,84.1126046 80.4176664,84.2989361 80.461,84.4462702 C80.5043335,84.5936042 80.5671662,84.7084364 80.6495,84.7907702 C80.7318337,84.8731039 80.8293327,84.9294367 80.942,84.9597702 C81.0546672,84.9901036 81.1759993,85.0052702 81.306,85.0052702 C81.4273339,85.0052702 81.555166,84.987937 81.6895,84.9532702 C81.823834,84.9186033 81.951666,84.8709371 82.073,84.8102702 L82.112,85.5772702 C81.9559992,85.6379371 81.7935008,85.6834367 81.6245,85.7137702 C81.4554991,85.7441036 81.2713343,85.7592702 81.072,85.7592702 C80.9073325,85.7592702 80.7340009,85.7376037 80.552,85.6942702 C80.3699991,85.6509366 80.2010008,85.5686041 80.045,85.4472702 C79.8889992,85.3259362 79.7611671,85.1612712 79.6615,84.9532702 C79.5618328,84.7452691 79.512,84.4722718 79.512,84.1342702 L79.512,80.3382702 L78.251,80.3382702 L78.251,79.5972702 L79.512,79.5972702 L79.512,77.8812702 L80.396,77.8812702 L80.396,79.5972702 L82.112,79.5972702 L82.112,80.3382702 Z" id="Sigmus-Development-Copy-3" fill-opacity="0.526437953" fill="#2F1919"></path>
            </g>
        </g>
    </g>
</svg>